<?xml version="1.0" standalone="no"?>
<!DOCTYPE svg PUBLIC "-//W3C//DTD SVG 20010904//EN"
 "http://www.w3.org/TR/2001/REC-SVG-20010904/DTD/svg10.dtd">
<svg version="1.0" xmlns="http://www.w3.org/2000/svg"
 width="209.000000pt" height="241.000000pt" viewBox="0 0 209.000000 241.000000"
 preserveAspectRatio="xMidYMid meet">
<metadata>
Created by potrace 1.10, written by Peter Selinger 2001-2011
</metadata>
<g transform="translate(0.000000,241.000000) scale(0.100000,-0.100000)"
fill="#000000" stroke="none">
<path d="M1017 2363 c-73 -242 -220 -719 -222 -722 -3 -3 -718 158 -777 175
-11 3 -18 0 -18 -9 0 -8 123 -147 273 -309 l273 -293 -273 -294 c-150 -161
-273 -300 -273 -308 0 -11 7 -14 22 -9 99 25 770 178 772 175 3 -3 163 -523
223 -722 7 -26 20 -47 27 -47 8 0 54 137 129 381 64 210 118 384 121 386 3 4
616 -134 773 -173 16 -4 23 -2 23 7 0 8 -124 147 -274 309 l-275 295 34 35
c207 217 515 558 515 569 0 8 -7 11 -19 8 -122 -32 -773 -178 -777 -174 -3 2
-57 176 -121 386 -75 244 -121 381 -129 381 -7 0 -20 -21 -27 -47z m138 -398
c59 -192 108 -356 111 -363 2 -7 8 -11 13 -8 5 3 163 42 352 85 189 44 352 83
362 86 9 4 17 4 17 1 0 -4 -116 -131 -259 -284 l-259 -277 112 -120 c61 -65
177 -190 259 -276 81 -87 147 -161 147 -164 0 -4 -8 -4 -17 0 -10 3 -171 42
-359 85 -187 43 -346 80 -353 82 -12 3 -29 -48 -173 -525 -42 -138 -65 -202
-70 -190 -5 14 -189 618 -214 705 -3 10 -11 15 -19 11 -18 -6 -729 -172 -731
-169 -1 0 115 125 257 276 142 151 258 279 258 283 1 4 -115 132 -258 285
-142 152 -258 278 -257 278 2 2 716 -164 731 -170 10 -4 132 372 232 719 4 11
8 16 9 10 2 -5 51 -167 109 -360z"/>
</g>
</svg>
